<?xml version="1.0" standalone="no"?>
<!DOCTYPE svg PUBLIC "-//W3C//DTD SVG 1.0//EN" "http://www.w3.org/TR/2001/REC-SVG-20010904/DTD/svg10.dtd">
<svg xmlns="http://www.w3.org/2000/svg" xmlns:xlink="http://www.w3.org/1999/xlink" id="body_1" width="88" height="67">

<defs>
    <linearGradient transform="matrix(247.0805 0 0 674.4281 490841.38 86240.52)"  id="1" x1="-1986.0042" y1="-127.8817" x2="-1986.0042" y2="-127.2186">
        <stop stop-color="#1CC3CE" offset="0%"/>
        <stop stop-color="#0D6D82" offset="100%"/>
    </linearGradient>
    <linearGradient transform="matrix(41.9999 -16.1223 27.2923 71.099 92188.414 -35142.4)"  id="275" x1="-2191.772" y1="-4.4266" x2="-2191.5977" y2="-4.057">
        <stop stop-color="#1CC3CE" offset="0%"/>
        <stop stop-color="#0D6D82" offset="100%"/>
    </linearGradient>
    <linearGradient transform="matrix(144.6171 0 0 82.1658 270997.56 10772.307)"  id="555" x1="-1872.7306" y1="-125.7958" x2="-1873.1478" y2="-125.6889">
        <stop stop-color="#364D83" offset="0%"/>
        <stop stop-color="#B2C4FF" offset="100%"/>
    </linearGradient>
    <linearGradient transform="matrix(69.337 0 0 203.9296 133932.97 25920.02)"  id="831" x1="-1930.4277" y1="-127.2353" x2="-1930.4277" y2="-126.5723">
        <stop stop-color="#1CC3CE" offset="0%"/>
        <stop stop-color="#0D6D82" offset="100%"/>
    </linearGradient>
    <linearGradient transform="matrix(61.6215 0 0 82.188 120228.58 10132.634)"  id="1105" x1="-1949.8489" y1="-125.0895" x2="-1949.8489" y2="-124.4258">
        <stop stop-color="#FFFFFF" offset="0%"/>
        <stop stop-color="#F0F0F0" offset="100%"/>
    </linearGradient>
    <linearGradient transform="matrix(17.4765 0 0 30.0332 33541.445 3447.9712)"  id="1380" x1="-1915.2197" y1="-118.513" x2="-1915.3109" y2="-118.7094">
        <stop stop-color="#30334F" offset="0%"/>
        <stop stop-color="#181E36" offset="100%"/>
    </linearGradient>
    <linearGradient transform="matrix(3.9621 0 0 5.9397 6485.725 397.1144)"  id="1655" x1="-1614.2902" y1="-80.1241" x2="-1614.5293" y2="-80.2097">
        <stop stop-color="#FFFFFF" offset="0%"/>
        <stop stop-color="#E6E6E6" offset="100%"/>
    </linearGradient>
    <linearGradient transform="matrix(87.1665 0 0 49.4975 110887.875 6566.47)"  id="1925" x1="-1268.7834" y1="-122.9448" x2="-1269.163" y2="-122.8476">
        <stop stop-color="#364D83" offset="0%"/>
        <stop stop-color="#B2C4FF" offset="100%"/>
    </linearGradient>
    <linearGradient transform="matrix(3.9404 -0.5173 0.4142 4.9227 1287.5927 551.8964)"  id="2199" x1="-301.9503" y1="-151.7461" x2="-302.2636" y2="-151.8239">
        <stop stop-color="#F8A29B" offset="0%"/>
        <stop stop-color="#C47770" offset="100%"/>
    </linearGradient>
    <linearGradient transform="matrix(55.028 -10.4844 5.7837 99.752 713.0756 17431.945)"  id="2481" x1="5.8324" y1="-175.1586" x2="5.8324" y2="-174.5555">
        <stop stop-color="#1CC3CE" offset="0%"/>
        <stop stop-color="#0D6D82" offset="100%"/>
    </linearGradient>
    <linearGradient transform="matrix(52.8793 -7.0276 5.5578 66.8626 583.6566 11536.053)"  id="2758" x1="7.4224" y1="-172.9531" x2="7.4224" y2="-172.35">
        <stop stop-color="#FFFFFF" offset="0%"/>
        <stop stop-color="#F0F0F0" offset="100%"/>
    </linearGradient>
    <linearGradient transform="matrix(-23.7727 -0 0 33.6583 1219.6802 3897.343)"  id="3034" x1="49.0391" y1="-122.4655" x2="49.0391" y2="-121.8024">
        <stop stop-color="#80E9FF" offset="0%"/>
        <stop stop-color="#1F9BB1" offset="100%"/>
    </linearGradient>
    <linearGradient transform="matrix(-15.8978 17.6563 25.0173 22.5257 4439.761 2570.2913)"  id="3305" x1="37.0488" y1="-152.6705" x2="37.0488" y2="-152.0074">
        <stop stop-color="#80E9FF" offset="0%"/>
        <stop stop-color="#1F9BB1" offset="100%"/>
    </linearGradient>
    <linearGradient transform="matrix(-19.9403 22.1459 31.9555 28.7729 5301.326 3408.7808)"  id="3587" x1="28.3402" y1="-147.4352" x2="28.3402" y2="-146.7715">
        <stop stop-color="#80E9FF" offset="0%"/>
        <stop stop-color="#1F9BB1" offset="100%"/>
    </linearGradient>
    <linearGradient transform="matrix(-20.5893 -11.8872 -16.8338 29.157 -918.9704 3287.7239)"  id="3869" x1="37.8289" y1="-104.399" x2="37.8289" y2="-103.7363">
        <stop stop-color="#80E9FF" offset="0%"/>
        <stop stop-color="#1F9BB1" offset="100%"/>
    </linearGradient>
    <linearGradient transform="matrix(-27.0266 -12.6027 -18.1736 38.9733 -1123.4816 4556.861)"  id="4152" x1="31.44" y1="-111.847" x2="31.44" y2="-111.1833">
        <stop stop-color="#80E9FF" offset="0%"/>
        <stop stop-color="#1F9BB1" offset="100%"/>
    </linearGradient>
    <linearGradient transform="matrix(-23.7727 -0 0 33.6583 -55481.137 3896.5906)"  id="4432" x1="-2335.7197" y1="-121.9891" x2="-2335.7197" y2="-121.3259">
        <stop stop-color="#80E9FF" offset="0%"/>
        <stop stop-color="#1F9BB1" offset="100%"/>
    </linearGradient>
    <linearGradient transform="matrix(-15.8978 17.6563 25.0173 22.5257 -34325.047 42782.203)"  id="4711" x1="-2311.746" y1="-96.0568" x2="-2311.746" y2="-95.3941">
        <stop stop-color="#80E9FF" offset="0%"/>
        <stop stop-color="#1F9BB1" offset="100%"/>
    </linearGradient>
    <linearGradient transform="matrix(-19.9403 22.1459 31.9555 28.7729 -42670.082 53845.55)"  id="4997" x1="-2305.9922" y1="-103.1136" x2="-2305.9922" y2="-102.4499">
        <stop stop-color="#80E9FF" offset="0%"/>
        <stop stop-color="#1F9BB1" offset="100%"/>
    </linearGradient>
    <linearGradient transform="matrix(-14.4462 26.0617 37.6145 20.8501 -29414.598 61788.887)"  id="5286" x1="-2297.4482" y1="-100.1088" x2="-2297.4482" y2="-99.4455">
        <stop stop-color="#80E9FF" offset="0%"/>
        <stop stop-color="#1F9BB1" offset="100%"/>
    </linearGradient>
    <linearGradient transform="matrix(-20.5893 -11.8872 -16.8338 29.157 -50369.22 -23782.443)"  id="5575" x1="-2332.856" y1="-141.8945" x2="-2332.856" y2="-141.2311">
        <stop stop-color="#80E9FF" offset="0%"/>
        <stop stop-color="#1F9BB1" offset="100%"/>
    </linearGradient>
    <linearGradient transform="matrix(-27.0266 -12.6027 -18.1736 38.9733 -65234.375 -24142.828)"  id="5864" x1="-2323.747" y1="-136.5993" x2="-2323.747" y2="-135.9363">
        <stop stop-color="#80E9FF" offset="0%"/>
        <stop stop-color="#1F9BB1" offset="100%"/>
    </linearGradient>
    <linearGradient transform="matrix(-27.0266 -12.6027 -18.1736 38.9733 -65237.35 -24122.752)"  id="6155" x1="-2323.682" y1="-136.7519" x2="-2323.682" y2="-136.0882">
        <stop stop-color="#80E9FF" offset="0%"/>
        <stop stop-color="#1F9BB1" offset="100%"/>
    </linearGradient>
    <linearGradient transform="matrix(-14.4462 26.0617 37.6145 20.8501 -29416.58 61810.387)"  id="6445" x1="-2297.6714" y1="-100.1768" x2="-2297.6714" y2="-99.5138">
        <stop stop-color="#80E9FF" offset="0%"/>
        <stop stop-color="#1F9BB1" offset="100%"/>
    </linearGradient>
    <linearGradient transform="matrix(-27.0266 -12.6027 -18.1736 38.9733 -65239.332 -24101.254)"  id="6733" x1="-2323.5996" y1="-136.9109" x2="-2323.5996" y2="-136.2472">
        <stop stop-color="#80E9FF" offset="0%"/>
        <stop stop-color="#1F9BB1" offset="100%"/>
    </linearGradient>
    <linearGradient transform="matrix(104.0055 0 0 59.397 132310.55 7461.394)"  id="7026" x1="-1270.4382" y1="-125.0268" x2="-1270.8176" y2="-124.9284">
        <stop stop-color="#364D83" offset="0%"/>
        <stop stop-color="#B2C4FF" offset="100%"/>
    </linearGradient>
    <linearGradient transform="matrix(90.4167 0 0 209.8693 116109.836 26539.727)"  id="7301" x1="-1282.6318" y1="-127.0927" x2="-1282.6318" y2="-126.4896">
        <stop stop-color="#1CC3CE" offset="0%"/>
        <stop stop-color="#0D6D82" offset="100%"/>
    </linearGradient>
    <linearGradient transform="matrix(90.4167 0 0 209.8693 116128.08 26551.82)"  id="7579" x1="-1282.7435" y1="-127.113" x2="-1282.6831" y2="-126.3347">
        <stop stop-color="#FFFFFF" offset="0%"/>
        <stop stop-color="#E6EDFF" offset="100%"/>
    </linearGradient>
</defs>

<g transform="matrix(0.12407407 0 0 0.12407407 4.296296 -0)">
	<g transform="matrix(1 0 0 1 299.13953 34.64824)">
		<g transform="matrix(1 0 0 1 54.479053 0)">
            <path d="M82.3 -5.1L204.4 64.3C 214.29999 69.9 220.4 80.5 220.4 91.9L220.4 91.9L220.4 423C 220.4 426.6 218.5 430 215.4 432L215.4 432L203.9 439.2C 200.29999 441.5 195.7 441.30002 192.29999 438.90002L192.29999 438.90002L78.1 360C 69.7 354.2 64.6 344.8 64.4 334.7L64.4 334.7L56.4 5.8000183C 56.300003 3.1000183 57.9 0.8000183 60.300003 -0.2999816L60.300003 -0.2999816L72.8 -5.599982C 76 -7 79.4 -6.8 82.3 -5.1z" stroke="none" fill="url(#1)" />
            <path d="M72.2 -0.7L196 70.600006C 205.8 76.200005 211.9 86.700005 211.9 98.100006L211.9 98.100006L211.9 428.5C 211.9 434.3 207.2 439 201.4 439C 199.5 439 197.79999 438.5 196.09999 437.6L196.09999 437.6L72.3 366.3C 62.500004 360.69998 56.4 350.19998 56.4 338.8L56.4 338.8L56.4 8.5C 56.4 2.6999998 61.100002 -2 66.9 -2C 68.9 -2.1 70.7 -1.6 72.2 -0.7z" stroke="none" fill="#FFFFFF" fill-rule="nonzero" />
            <path d="M68.1 1.4L191.9 72.700005C 201.7 78.3 207.79999 88.8 207.79999 100.200005L207.79999 100.200005L207.79999 430.6C 207.79999 436.4 203.09999 441.1 197.29999 441.1C 195.4 441.1 193.69998 440.6 191.99998 439.7L191.99998 439.7L68.1 368.4C 58.3 362.8 52.199997 352.3 52.199997 340.9L52.199997 340.9L52.199997 10.5C 52.2 4.7 56.9 0 62.8 0C 64.6 0 66.5 0.5 68.1 1.4z" stroke="none" fill="#092965" fill-rule="nonzero" />
            <path d="M71.4 10.6L102.2 29.2C 104.899994 30.900002 106.799995 33.600002 107.5 36.7C 108.2 39.8 110.1 42.5 112.9 44.100002L112.9 44.100002L146.3 63.4C 148.1 64.5 150.3 63.800003 151.40001 62C 151.40001 62 151.40001 61.9 151.50002 61.9C 152.50002 60.100002 154.70001 59.4 156.50002 60.4C 156.50002 60.4 156.60002 60.4 156.60002 60.5L156.60002 60.5L185.70003 77.3C 195.50003 82.9 201.50003 93.4 201.50003 104.8L201.50003 104.8L201.50003 414.8C 201.50003 420.59998 196.80003 425.3 191.00003 425.3C 189.10004 425.3 187.30003 424.8 185.70003 423.8L185.70003 423.8L74.2 358.7C 64.5 353 58.499996 342.6 58.499996 331.30002L58.499996 331.30002L58.499996 17.8C 58.499996 13.199999 62.299995 9.299999 67 9.299999C 68.5 9.3 70.1 9.8 71.4 10.6z" stroke="none" fill="#FFFFFF" fill-rule="nonzero" />
            <path d="M73.9 61.1L186.6 124.1L186.6 388L73.9 325L73.9 61.1" stroke="none" fill="#D8D8D8" fill-rule="nonzero" fill-opacity="0.2" />
		</g>
		<g transform="matrix(1 0 0 1 180.90608 360.1005)">
            <path d="M17.1 -125.4L17.1 -57.800003C 17.1 -54.300003 19 -51.000004 22 -49.300003L22 -49.300003L103.5 -2.0000038C 105.1 -1.1000038 107.1 -1.6000038 108 -3.2000039C 108.3 -3.7000039 108.5 -4.300004 108.5 -4.900004L108.5 -4.900004L108.5 -72.200005C 108.5 -75.700005 106.6 -79.00001 103.6 -80.700005L103.6 -80.700005L22 -128.3C 20.4 -129.2 18.4 -128.7 17.5 -127.100006C 17.3 -126.6 17.1 -126 17.1 -125.4z" stroke="none" fill="#31C1CB" fill-rule="nonzero" />
            <path d="M87 -69L65 -81.7L65.1 -83.899994L87 -71.3L87 -69zM87 -61.2L87 -63.4L67.5 -74.6L67.6 -72.4L87 -61.2zM97.4 -66.1L90 -70.299995L90 -60.199997L97.4 -55.999996L97.4 -66.1z" stroke="none" fill="#FFFFFF" fill-rule="nonzero" />
            <path d="M87 -50L65 -62.7L65.1 -64.9L87 -52.3L87 -50zM87 -42.2L87 -44.4L67.5 -55.6L67.6 -53.399998L87 -42.2zM97.4 -47.1L90 -51.3L90 -41.199997L97.4 -36.999996L97.4 -47.1z" stroke="none" fill="#FFFFFF" fill-rule="nonzero" />
            <path d="M87 -32.3L65 -45L65.1 -47.2L87 -34.6L87 -32.3zM87 -24.5L87 -26.7L67.5 -37.9L67.6 -35.7L87 -24.5zM97.4 -29.4L90 -33.6L90 -23.499998L97.4 -19.3L97.4 -29.4z" stroke="none" fill="#FFFFFF" fill-rule="nonzero" />
			<g transform="matrix(0.99452186 0.10452846 -0.10452846 0.99452186 9.9868355 29.696003)">
                <path d="M31.1 -88C 38.8 -91 41 -103.8 36.1 -116.6C 31.199999 -129.5 20.999998 -137.4 13.299999 -134.5C 11.999999 -134 9.699999 -133.4 6.399999 -132.6C 5.0999994 -121.200005 5.799999 -112.3 8.299999 -105.8C 10.499999 -100 14.999999 -93.3 21.699999 -85.5C 26.3 -86.6 29.4 -87.4 31.1 -88z" stroke="none" fill="url(#275)" />
				<g transform="matrix(1 0 0 1 0.244602 4.765441)">
                    <path transform="matrix(-0.9397 0.342 -0.342 -0.9397 -11.8643 -225.4509)"  d="M-0.70000076 -113.799995C -0.70000076 -127.55189 5.8366413 -138.7 13.9 -138.7C 21.963358 -138.7 28.5 -127.55189 28.5 -113.799995C 28.5 -100.0481 21.963358 -88.899994 13.9 -88.899994C 5.8366413 -88.899994 -0.70000076 -100.0481 -0.70000076 -113.799995" stroke="none" fill="#ADCCFF" fill-rule="nonzero" />
                    <path d="M9.6 -114.2L17.7 -89.899994C 23.6 -89.299995 27.6 -92.59999 29.6 -99.799995C 31.1 -105.2 30.4 -111.49999 27.6 -119L27.6 -119L9.6 -114.2z" stroke="none" fill="#FFFFFF" fill-rule="nonzero" />
				</g>
			</g>
		</g>
		<g transform="matrix(1 0 0 1 218 240)">
            <path d="M-2.9 -85L-2.9 -39.4C -2.9 -35.9 -1.0000001 -32.600002 2 -30.900002L2 -30.900002L57.9 1.6C 59.5 2.5 61.5 2 62.4 0.39999998C 62.7 -0.100000024 62.9 -0.70000005 62.9 -1.3000001L62.9 -1.3000001L62.9 -46.7C 62.9 -50.2 61 -53.5 58 -55.2L58 -55.2L2 -87.8C 0.5 -88.700005 -1.5 -88.200005 -2.4 -86.700005C -2.7 -86.1 -2.9 -85.6 -2.9 -85z" stroke="none" fill="#31C1CB" fill-rule="nonzero" />
            <path d="M8.3 -63.4L51.3 -38.9L51.399998 -41.2L8.399998 -65.7L8.3 -63.4zM8.3 -50.4L36.3 -34.4L36.399998 -36.600002L8.499998 -52.600002L8.3 -50.4z" stroke="none" fill="#FFFFFF" fill-rule="nonzero" />
		</g>
		<g transform="matrix(1 0 0 1 72.30856 270.2563)">
			<g>
                <path d="M46.2 -95.2L46.2 -49.6C 46.2 -46.1 48.100002 -42.8 51.100002 -41.1L51.100002 -41.1L107 -8.6C 108.6 -7.7000003 110.6 -8.200001 111.5 -9.8C 111.8 -10.3 112 -10.900001 112 -11.5L112 -11.5L112 -56.9C 112 -60.4 110.1 -63.7 107.1 -65.4L107.1 -65.4L51.1 -97.9C 49.6 -98.8 47.6 -98.3 46.699997 -96.8C 46.3 -96.3 46.2 -95.8 46.2 -95.2z" stroke="none" fill="#238B8E" fill-rule="nonzero" />
			</g>
            <path d="M50.3 -52.3L59.8 -62.3C 60.8 -63.399998 62.5 -63.399998 63.5 -62.399998C 63.7 -62.199997 63.9 -61.999996 64 -61.699997L64 -61.699997L70.2 -50.199997L86.299995 -61.399998C 87.49999 -62.199997 89.2 -61.899998 89.899994 -60.699997C 89.99999 -60.499996 90.09999 -60.399998 90.2 -60.199997L90.2 -60.199997L106.399994 -18.999996L50.3 -52.3z" stroke="none" fill="#49DEE2" fill-rule="nonzero" />
            <path transform="matrix(0.8829 -0.4695 0.4695 0.8829 40.5957 24.9932)"  d="M66.8 -68.9C 66.8 -71.77188 68.41177 -74.1 70.4 -74.1C 72.38823 -74.1 74 -71.77188 74 -68.9C 74 -66.02812 72.38823 -63.7 70.4 -63.7C 68.41177 -63.7 66.8 -66.02812 66.8 -68.9" stroke="none" fill="#49DEE2" fill-rule="nonzero" />
		</g>
		<g transform="matrix(1 0 0 1 72.30856 161.36182)">
			<g>
                <path d="M46.2 -58.5L46.2 -12.900002C 46.2 -9.400002 48.100002 -6.1000013 51.100002 -4.4000015L51.100002 -4.4000015L107 28.1C 108.6 29 110.6 28.5 111.5 26.9C 111.8 26.4 112 25.8 112 25.199999L112 25.199999L112 -20.200003C 112 -23.700003 110.1 -27.000004 107.1 -28.700003L107.1 -28.700003L51.1 -61.3C 49.6 -62.2 47.6 -61.7 46.699997 -60.2C 46.3 -59.6 46.2 -59.1 46.2 -58.5z" stroke="none" fill="#238B8E" fill-rule="nonzero" />
			</g>
            <path d="M50.3 -15.6L59.8 -25.6C 60.8 -26.7 62.5 -26.7 63.5 -25.7C 63.7 -25.5 63.9 -25.300001 64 -25L64 -25L70.2 -13.5L86.299995 -24.7C 87.49999 -25.5 89.2 -25.2 89.899994 -24C 89.99999 -23.8 90.09999 -23.7 90.2 -23.5L90.2 -23.5L106.399994 17.7L50.3 -15.6z" stroke="none" fill="#49DEE2" fill-rule="nonzero" />
            <path transform="matrix(0.8829 -0.4695 0.4695 0.8829 23.3731 29.2878)"  d="M66.8 -32.2C 66.8 -35.07188 68.41177 -37.4 70.4 -37.4C 72.38823 -37.4 74 -35.07188 74 -32.2C 74 -29.32812 72.38823 -27 70.4 -27C 68.41177 -27 66.8 -29.32812 66.8 -32.2" stroke="none" fill="#49DEE2" fill-rule="nonzero" />
		</g>
		<g>
            <path d="M70.6 443.5C 70.6 428.42264 92.04556 416.2 118.5 416.2C 144.95444 416.2 166.4 428.42264 166.4 443.5C 166.4 458.57736 144.95444 470.8 118.5 470.8C 92.04556 470.8 70.6 458.57736 70.6 443.5" stroke="none" fill="url(#555)" />
		</g>
		<g transform="matrix(1 0 0 1 33.67796 333.61307)">
            <path d="M59.6 102.1C 59.399998 103.4 59.3 104.5 59.3 105.2C 59.3 106.299995 61.2 107.899994 64.9 107.7C 68.6 107.399994 71.700005 104.1 72.1 103.7C 72.4 103.399994 71.799995 100.5 74 99.799995C 76.200005 99.09999 76.6 100.6 80.2 98.299995C 83.799995 95.99999 83.6 90.1 81.6 88.799995C 80 87.7 72.8 92.2 59.6 102.1z" stroke="none" fill="#30334F" fill-rule="nonzero" />
            <path d="M85.4 118.3C 85 119.4 84.8 120.600006 84.8 121.700005C 84.8 123.600006 88.200005 124.600006 92.4 124.600006C 96.6 124.600006 95 122.8 97.8 122.3C 100.700005 121.8 100.3 123.600006 104.4 123.600006C 108.5 123.600006 114.1 122.700005 115 118.3C 115.6 115.3 105.7 115.3 85.4 118.3z" stroke="none" fill="#30334F" fill-rule="nonzero" />
            <path d="M60.7 90.6C 60 92.299995 59.5 96.2 59.2 102.299995C 59.7 104.899994 61.7 105.899994 65 105.49999C 70 104.799995 69 102.49999 76.5 98.69999C 84 94.89999 83.5 89.69999 81.5 88.49999C 79.5 87.19999 77.1 86.49999 70.8 88.19999C 66.7 89.4 63.3 90.2 60.7 90.6z" stroke="none" fill="#181E36" fill-rule="nonzero" />
            <path d="M100 106.8C 101 109.3 103.6 110.8 107.6 111.5C 113.7 112.4 116.799995 114.9 116.299995 117.5C 115.799995 120 112.7 122.9 105.99999 122.3C 99.19999 121.600006 97.799995 122.3 94.399994 122.600006C 90.99999 122.90001 86.899994 122.90001 85.2 120.200005C 84.799995 118.100006 84.799995 115.4 85.2 112.200005C 85.799995 107.4 86.899994 107.100006 86.899994 105.50001C 86.8 104.5 91.2 104.9 100 106.8z" stroke="none" fill="#181E36" fill-rule="nonzero" />
            <path d="M99.9 -85.5C 100.5 -84.1 101.1 -83.1 101.6 -82.6C 102.299995 -81.9 101.5 -80.9 100.7 -80.9C 100.2 -80.8 99.9 -82.3 99.9 -85.5z" stroke="none" fill="#C47770" fill-rule="nonzero" />
            <path d="M104.3 -16C 106.200005 -13.1 105.600006 -5.7 105.8 0.79999924C 106.200005 15.699999 104.9 33.399998 104.9 36.8C 104.9 41.8 102.6 77.6 102.6 85.899994C 102.6 91.399994 102.299995 98.09999 101.7 105.899994C 95.1 109.09999 89.6 108.99999 85.2 105.59999C 86.1 60.39999 86.6 36.499992 86.6 33.799988C 86.6 31.099987 86.5 28.999989 86.1 27.399988C 82.299995 44.19999 80.5 53.799988 80.5 55.99999C 80.5 58.19999 78.5 69.999985 74.5 91.19999C 72.1 93.39999 69.4 94.19999 66.4 93.59999C 63.4 92.99999 61.300003 91.899994 59.9 90.19999C 60.800003 69.19999 62.4 56.19999 64.8 51.299988C 65.3 41.599987 67.9 15.199989 67.9 8.699989C 67.9 2.1999893 64.8 -10.10001 68.700005 -21.20001C 72.6 -32.3 98.3 -25.7 104.3 -16z" stroke="none" fill="url(#831)" />
            <path d="M100.8 -17.2C 102.8 -15.500001 101.600006 39.8 101.600006 50.8C 101.600006 58.2 100.40001 76.4 98.00001 105.6" stroke="#1C478A" stroke-width="1.0264" fill="none" />
            <path d="M113.7 -95.1C 115.2 -99.5 115.899994 -102.1 116 -103.1C 116.1 -104.1 116.1 -105.6 116 -107.4C 116.2 -109.8 116.5 -111.5 116.9 -112.6C 117.6 -114.299995 118.1 -113.7 119.4 -113.7C 120.700005 -113.7 121.3 -115.2 122.6 -114.399994C 123.9 -113.7 124.5 -114.299995 125.2 -113.99999C 125.899994 -113.69999 126.899994 -113.899994 128.4 -117.59999C 130 -121.29999 130.09999 -122.29999 130.79999 -121.99999C 131.49998 -121.69999 131.19998 -118.799995 130.29999 -116.19999C 129.4 -113.59999 127.69999 -108.99999 127.999985 -108.19999C 128.29999 -107.39999 130.29999 -109.39999 130.69998 -110.19999C 131.19998 -111.09999 132.49998 -111.39999 133.19998 -110.69999C 133.89998 -109.99999 132.19998 -108.29999 130.69998 -106.49999C 129.19998 -104.59999 128.29999 -101.49999 125.39998 -100.69999C 124.69998 -100.39999 123.29998 -97.39999 121.39998 -91.89999L121.39998 -91.89999L113.7 -95.1z" stroke="none" fill="#AC6A5A" fill-rule="nonzero" />
            <path d="M71 -71.1C 66.7 -71.2 63.6 -67.7 64.7 -62.8C 65.799995 -57.9 71.899994 -57.3 77.799995 -55.6C 83.7 -53.899998 98.799995 -54.5 106.399994 -56.899998C 113.99999 -59.399998 121.99999 -92.3 123.299995 -95.7C 124.2 -98 121.399994 -99.799995 115.1 -101.2L115.1 -101.2L99.5 -68.1C 83.4 -70 73.9 -71 71 -71.1z" stroke="none" fill="#F0F0F0" fill-rule="nonzero" />
            <path transform="matrix(0.9511 -0.309 0.309 0.9511 31.7657 26.877)"  d="M98.399994 -86.9C 98.399994 -88.66731 99.42974 -90.1 100.7 -90.1C 101.97025 -90.1 103 -88.66731 103 -86.9C 103 -85.13269 101.97025 -83.700005 100.7 -83.700005C 99.42974 -83.700005 98.399994 -85.13269 98.399994 -86.9" stroke="#30334F" stroke-width="1.0264" fill="none" />
            <path d="M69.4 -27C 68.700005 -27 68.4 -26.1 68.4 -24.5C 68.4 -22.1 71.1 -19.1 73.8 -17.3C 76.5 -15.599999 84.4 -13.599999 96.9 -14.799999C 101.1 -15.599999 103.4 -17.8 103.9 -21.4L103.9 -21.4L69.4 -27z" stroke="none" fill="#092965" fill-rule="nonzero" />
            <path d="M96.7 -90.7L99.399994 -90.7C 99.7 -90.7 100.09999 -90.399994 100.09999 -90C 100.09999 -89.7 99.79999 -89.3 99.399994 -89.3L99.399994 -89.3L96.7 -89.3C 96.399994 -89.3 96 -89.600006 96 -90C 96 -90.4 96.3 -90.7 96.7 -90.7z" stroke="none" fill="#30334F" fill-rule="nonzero" />
            <path d="M96.7 -95.8C 98.799995 -92 99.799995 -89.200005 99.799995 -87.600006C 99.799995 -85.200005 101.299995 -85.3 101.299995 -82.200005C 101.299995 -79.100006 101.49999 -72.700005 99.799995 -71.200005C 98.7 -70.200005 96.6 -69.9 93.49999 -70.4C 92.99999 -67.200005 92.99999 -65.1 93.49999 -64.3C 93.99999 -63.500004 94.59999 -62.800003 95.399994 -62.4C 89.299995 -62.800003 85.399994 -63.4 83.7 -64.3C 82 -65.200005 81.299995 -66.700005 81.799995 -68.9C 82.49999 -68.8 82.7 -69 82.7 -69.6C 82.7 -70.2 82.7 -72.2 82.7 -75.7C 82 -84.7 82.8 -90.4 85 -93C 87.1 -95.4 91.1 -96.3 96.7 -95.8z" stroke="none" fill="#AC6A5A" fill-rule="nonzero" />
			<g transform="matrix(1 0 0 1 10.89581 77.21608)">
				<g>
                    <path d="M86.5 -138.5C 91.3 -136.9 94.5 -135.3 95.9 -133.7C 97.200005 -132.3 96 -123.5 92.1 -107.299995C 93.1 -104.799995 93.799995 -102.299995 94.2 -99.99999C 94.6 -97.69999 94.2 -96.299995 93 -95.799995C 85.2 -92.899994 76.2 -92.99999 65.9 -96.299995C 61.5 -98.1 58.7 -100.49999 57.5 -103.299995C 56.6 -104.7 57 -108.49999 58.8 -114.799995C 57.5 -123.99999 54.1 -141.29999 56.3 -146.2C 57.2 -148.5 62.1 -148.8 70.8 -147.3L70.8 -147.3L86.5 -138.5z" stroke="none" fill="url(#1105)" />
				</g>
                <path d="M88.6 -129.3C 87.6 -124.100006 89.5 -118.200005 94.2 -111.3C 101.299995 -101 91.7 -102.3 87 -111.3C 83.9 -117.3 84.5 -123.3 88.6 -129.3z" stroke="none" fill="#D8D8D8" fill-rule="nonzero" />
                <path d="M55.6 -137.8C 62.399998 -128.2 75 -122.5 93.7 -121" stroke="#D8D8D8" stroke-width="1.0264" fill="none" />
			</g>
			<g transform="matrix(1 0 0 1 20.801092 28.708544)">
				<g>
                    <path d="M68.3 -110.6C 67 -110.6 65 -110.299995 66.600006 -106.299995C 68.3 -102.299995 63.600006 -99.899994 62.200005 -100.399994C 60.700005 -100.899994 56.000004 -108.2 53.400005 -110.09999C 51.700005 -111.399994 51.800007 -113.899994 53.800007 -117.49999C 52.300007 -121.299995 53.300007 -123.99999 56.800007 -125.69999C 62.000008 -128.19998 70.3 -132.69998 73.90001 -131.69998C 76.30001 -131.09998 77.20001 -130.19998 76.600006 -129.09998C 80.40001 -127.29997 81.40001 -125.49998 79.40001 -123.49998C 77.40001 -121.49998 74.600006 -120.29998 71.00001 -119.599976C 73.40001 -118.29997 74.40001 -116.79997 73.90001 -115.199974C 73.20001 -112.699974 72.600006 -109.89997 73.90001 -107.79997C 75.20001 -105.699974 80.30001 -105.89997 80.70001 -107.79997C 81.30001 -106.39997 81.20001 -101.99997 80.90001 -100.99997C 80.70001 -99.89997 81.600006 -98.39997 76.90001 -98.39997C 72.20001 -98.39997 74.00001 -102.89997 72.600006 -106.199974C 71.1 -109.5 69.5 -110.6 68.3 -110.6z" stroke="none" fill="#30334F" fill-rule="nonzero" />
				</g>
				<g>
                    <path d="M68.3 -110.6C 67 -110.6 65 -110.299995 66.600006 -106.299995C 68.3 -102.299995 63.600006 -99.899994 62.200005 -100.399994C 60.700005 -100.899994 56.000004 -108.2 53.400005 -110.09999C 51.700005 -111.399994 51.800007 -113.899994 53.800007 -117.49999C 52.300007 -121.299995 53.300007 -123.99999 56.800007 -125.69999C 62.000008 -128.19998 70.3 -132.69998 73.90001 -131.69998C 76.30001 -131.09998 77.20001 -130.19998 76.600006 -129.09998C 80.40001 -127.29997 81.40001 -125.49998 79.40001 -123.49998C 77.40001 -121.49998 74.600006 -120.29998 71.00001 -119.599976C 73.40001 -118.29997 74.40001 -116.79997 73.90001 -115.199974C 73.20001 -112.699974 72.600006 -109.89997 73.90001 -107.79997C 75.20001 -105.699974 80.30001 -105.89997 80.70001 -107.79997C 81.30001 -106.39997 81.20001 -101.99997 80.90001 -100.99997C 80.70001 -99.89997 81.600006 -98.39997 76.90001 -98.39997C 72.20001 -98.39997 74.00001 -102.89997 72.600006 -106.199974C 71.1 -109.5 69.5 -110.6 68.3 -110.6z" stroke="none" fill="#FFFFFF" fill-rule="nonzero" />
				</g>
                <path d="M70.9 -119.7C 63 -118.6 61.600002 -113.899994 66.700005 -105.6C 74.3 -93 69.600006 -108.1 73.4 -109.7C 76 -110.799995 76 -114.299995 73.4 -120.6L73.4 -120.6L70.9 -119.7z" stroke="none" fill="url(#1380)" />
			</g>
            <path d="M82.3 -71C 82.100006 -70.1 83.4 -69.4 86.200005 -68.6C 90.4 -67.5 93.8 -66.1 95.600006 -63.399998L95.600006 -63.399998L97.3 -61.1C 88.3 -63.399998 83 -65.2 81.5 -66.5C 79.2 -68.4 80.9 -69.6 80.9 -69.6C 80.9 -69.6 81.4 -70.1 82.3 -71z" stroke="none" fill="#D8D8D8" fill-rule="nonzero" />
            <path d="M84.2 -6L84.2 -2.7C 88.3 -1.3 92.7 -1 97.3 -2L97.3 -2L97.3 -4.9C 94.200005 -4.8 91.8 -4.8 90.3 -4.9C 88.7 -5 86.7 -5.4 84.2 -6z" stroke="none" fill="#31C1CB" fill-rule="nonzero" />
            <path d="M86.1 27.8L85 10.599998C 83.3 10.299998 81.9 9.899999 80.8 9.199999C 79.700005 8.499999 78.4 7.3999987 76.9 5.7999988C 76.6 11.999998 77 17.599998 78.200005 22.4C 80.100006 29.7 83.200005 37.3 82.8 41.199997L82.8 41.199997L86.1 27.8z" stroke="none" fill="#197387" fill-rule="nonzero" />
            <path d="M102.6 -88.7L89.5 -82.799995" stroke="#30334F" stroke-width="1.0264" fill="none" />
			<g transform="matrix(1 0 0 1 46.554825 67.31658)">
				<g transform="matrix(0.99254614 0.12186933 -0.12186933 0.99254614 84.316315 36.491566)">
					<g transform="matrix(1 0 0 1 0.465275 0.832751)">
						<g transform="matrix(0.52991927 0.84804803 -0.84804803 0.52991927 37.823868 -15.067074)">
                            <path d="M-120 -55.4C -118.9 -56.300003 -116.8 -59.600002 -114.4 -57.800003C -111.4 -59.100002 -108.200005 -60.000004 -106.700005 -60.300003C -104.200005 -60.700005 -101.700005 -60.100002 -100.4 -60.200005C -99.1 -60.300003 -100.200005 -58.100006 -101.9 -58.100006C -103.6 -58.200005 -106.4 -58.100006 -107.200005 -57.700005C -107.700005 -57.400005 -108.50001 -57.000004 -109.50001 -56.400005C -107.30001 -56.600006 -105.90001 -56.500004 -105.30001 -56.300007C -104.40001 -55.800007 -103.70001 -53.20001 -102.90001 -52.400005C -102.00001 -51.400005 -103.70001 -50.700005 -104.30001 -51.400005C -104.20001 -50.700005 -104.20001 -50.200005 -104.10001 -49.900005C -104.000015 -49.300007 -103.80001 -48.600006 -104.000015 -48.500004C -104.60001 -48.200005 -105.90002 -48.500004 -106.10001 -50.000004C -106.40002 -49.500004 -106.60001 -48.900005 -106.80001 -48.300003C -107.10001 -47.4 -108.30001 -48.200005 -108.30001 -49.000004C -108.30001 -49.600002 -108.20001 -50.100002 -108.00001 -50.600002C -111.00001 -48.300003 -113.200005 -47.000004 -114.50001 -46.600002C -115.80001 -46.2 -117.50001 -46.4 -119.50001 -47.100002L-119.50001 -47.100002L-134 -37L-138 -43.6C -127.7 -50 -121.7 -53.8 -120 -55.4z" stroke="none" fill="#AC6A5A" fill-rule="nonzero" />
						</g>
                        <path d="M30.3 -142.9C 30 -145.4 29.3 -146.7 28.199999 -146.9C 27.099998 -147 26.3 -147.09999 25.699999 -147.09999C 27.599998 -147.59999 28.8 -147.59999 29.3 -147.09999C 29.599998 -146.7 31.199999 -143.9 31.4 -142.7C 30.9 -142.5 30.5 -142.6 30.3 -142.9z" stroke="none" fill="#7D4436" fill-rule="nonzero" />
                        <path d="M28.5 -141.5C 29.2 -143.4 29.3 -144.6 28.8 -145.1C 28.4 -145.6 27.3 -145.90001 25.8 -145.90001C 27.099998 -146.40001 28.099998 -146.40001 28.8 -145.70001C 29.4 -145.20001 29.3 -143.6 29.3 -141.50002C 29.3 -141.20001 29.4 -140.60002 29.599998 -139.90001C 29.3 -140.00002 28.999998 -140.20001 28.699999 -140.6C 28.6 -141 28.5 -141.2 28.5 -141.5z" stroke="none" fill="#7D4436" fill-rule="nonzero" />
                        <path d="M20.1 -149.2L17.9 -148.4L19.7 -150.6L20.1 -149.2" stroke="none" fill="#7D4436" fill-rule="nonzero" />
					</g>
				</g>
                <path d="M60.7 -123C 58.100002 -126.5 55.9 -126.9 52.7 -123C 49.600002 -119.1 50.9 -111.5 53.2 -105.8C 55.5 -100 65.2 -88.3 71.8 -83.700005C 78.6 -79 109.1 -93 112.6 -94C 114.9 -94.7 114.7 -98 111.799995 -103.9L111.799995 -103.9L76.5 -96.1C 67.7 -111.7 62.4 -120.7 60.7 -123z" stroke="none" fill="#F0F0F0" fill-rule="nonzero" />
			</g>
            <path d="M76.7 -11.3C 73.299995 1.0999994 76 8.400001 85.1 10.499999C 81.5 32.8 79.1 47.1 77.7 53.3C 76.3 59.6 74.4 72.8 72 93" stroke="#1C478A" stroke-width="1.0264" fill="none" />
            <path d="M92 -62.5C 98.7 -60 102.7 -58.1 103.9 -56.9C 105.1 -55.600002 110.9 -45.5 121.5 -26.400002L121.5 -26.400002L158.4 -35.600002" stroke="#D8D8D8" stroke-width="1.0264" fill="none" />
            <path d="M90.9 -81C 89.6 -82.6 88.4 -83.1 87.5 -82.6C 86 -81.799995 85.6 -79.7 87.5 -77.1C 88.8 -75.299995 90.2 -75.1 91.5 -76.5L91.5 -76.5L90.9 -81z" stroke="none" fill="#AC6A5A" fill-rule="nonzero" />
            <path d="M90.5 -79.9C 89.8 -80.8 89.2 -81 88.8 -80.8C 88.100006 -80.4 87.8 -79.200005 88.8 -77.8C 89.5 -76.8 90.100006 -76.700005 90.8 -77.5L90.8 -77.5L90.5 -79.9z" stroke="none" fill="url(#1655)" />
		</g>
	</g>
	<g>
		<g>
            <path d="M238.7 485C 238.7 476.77097 250.47491 470.1 265 470.1C 279.5251 470.1 291.3 476.77097 291.3 485C 291.3 493.22903 279.5251 499.9 265 499.9C 250.47491 499.9 238.7 493.22903 238.7 485" stroke="none" fill="url(#1925)" />
		</g>
		<g transform="matrix(-1 -0 0 1 248.62259 -0)">
			<g transform="matrix(1 0 0 1 24.545542 0)">
                <path d="M-11.4 94L78.6 145.8C 85.799995 149.90001 90.2 157.6 90.2 165.8L90.2 165.8L90.2 406C 90.2 410.2 86.799995 413.7 82.5 413.7C 81.2 413.7 79.8 413.30002 78.6 412.7L78.6 412.7L-11.400002 360.90002C -18.500002 356.7 -22.900002 349.10004 -22.900002 340.90002L-22.900002 340.90002L-22.900002 100.7C -22.900002 96.5 -19.500002 93 -15.200002 93C -13.9 93 -12.7 93.3 -11.4 94z" stroke="none" fill="#A9AAC4" fill-rule="nonzero" />
				<g transform="matrix(1 0 0 1 0 1.582785)">
					<g>
                        <path d="M-13.4 93.4L76.6 145.2C 83.799995 149.3 88.2 157 88.2 165.2L88.2 165.2L88.2 405.4C 88.2 409.6 84.799995 413.1 80.5 413.1C 79.2 413.1 77.8 412.7 76.6 412.1L76.6 412.1L-13.300003 360.30002C -20.500004 356.1 -24.900003 348.50003 -24.900003 340.30002L-24.900003 340.30002L-24.900003 100.1C -24.900003 95.799995 -21.500004 92.4 -17.200005 92.4C -15.9 92.4 -14.5 92.7 -13.4 93.4z" stroke="none" fill="#F9F9F9" fill-rule="nonzero" />
					</g>
                    <path d="M-67.9 267.1L116 371.1L116 476.4L-67.9 372.4L-67.9 267.1" stroke="none" fill="#BBCCF3" fill-rule="nonzero" fill-opacity="0.29803923" />
                    <path d="M24.1 352.5C 26.800001 345.2 28.900002 339.3 28.900002 339.3C 28.900002 339.3 26.7 345.2 24.1 352.5C 21.4 359.8 19.3 365.7 19.3 365.7C 19.3 365.7 21.4 359.7 24.1 352.5z" stroke="none" fill="#197387" fill-rule="nonzero" />
                    <path d="M24.3 352.4C 27.8 342.69998 30.699999 334.9 30.699999 334.9C 30.699999 334.9 27.8 342.7 24.3 352.4C 20.8 362.1 17.9 369.9 17.9 369.9C 17.9 369.9 20.7 362 24.3 352.4z" stroke="#979797" stroke-width="0.6336" fill="none" />
                    <path d="M-46.4 7L137.5 111.2L137.5 216.7L-46.4 112.5L-46.4 7" stroke="none" fill="#BBCCF3" fill-rule="nonzero" fill-opacity="0.29803923" />
				</g>
			</g>
            <path d="M79.2 193.7L129.6 222C 132.5 223.6 134.3 226.7 134.3 230L134.3 230L134.3 326C 134.3 327.7 132.90001 329.1 131.2 329.1C 130.7 329.1 130.2 329 129.7 328.7L129.7 328.7L79.299995 300.40002C 76.399994 298.80002 74.6 295.7 74.6 292.40002L74.6 292.40002L74.6 196.40002C 74.6 194.70003 76 193.30002 77.7 193.30002C 78.2 193.3 78.7 193.5 79.2 193.7z" stroke="none" fill="#DDE7F9" fill-rule="nonzero" />
            <path d="M113.3 232.7L93.3 221.2L93.4 219.2L113.2 230.59999L113.3 232.7zM113.3 239.8L113.200005 237.8L95.5 227.6L95.6 229.6L113.3 239.8zM122.7 235.3L115.899994 231.40001L115.899994 240.6L122.7 244.5L122.7 235.3z" stroke="none" fill="#FFFFFF" fill-rule="nonzero" />
            <path d="M113.3 256.6L85.200005 240.40001L85.200005 238.40001L113.200005 254.50002L113.3 256.6zM113.3 263.7L113.200005 261.7L87.8 247L87.9 249L113.3 263.7zM122.7 259.2L115.899994 255.30002L115.899994 264.50003L122.7 268.40002L122.7 259.2z" stroke="none" fill="#FFFFFF" fill-rule="nonzero" />
            <path d="M113.1 275.9L96 266.1L96.1 264.1L113 273.80002L113.1 275.9zM113.1 283L113 281L87.5 266.3L87.6 268.3L113.1 283zM122.5 278.6L115.7 274.7L115.7 283.90002L122.5 287.80002L122.5 278.6z" stroke="none" fill="#FFFFFF" fill-rule="nonzero" />
            <path d="M113.3 297.8L85.200005 281.59998L85.200005 279.59998L113.200005 295.69998L113.3 297.8zM113.3 304.9L113.200005 302.9L99 294.7L99.1 296.6L113.3 304.9zM122.7 300.4L115.899994 296.5L115.899994 305.7L122.7 309.6L122.7 300.4z" stroke="none" fill="#FFFFFF" fill-rule="nonzero" />
			<g transform="matrix(1 0 0 1 0 102.88103)">
				<g>
                    <path d="M-15.2 50.7L-15.2 83.8C -15.2 86.3 -13.9 88.700005 -11.6 90L-11.6 90L29 113.7C 30.1 114.399994 31.6 114 32.3 112.899994C 32.5 112.49999 32.6 112.09999 32.6 111.7L32.6 111.7L32.6 78.6C 32.6 76.1 31.3 73.7 28.999998 72.4L28.999998 72.4L-11.500002 48.7C -12.600002 48 -14.200002 48.4 -14.800002 49.5C -15 49.9 -15.2 50.3 -15.2 50.7z" stroke="none" fill="#31C1CB" fill-rule="nonzero" />
				</g>
                <path d="M-12.1 81.8L-5.2000003 74.5C -4.5000005 73.7 -3.3000002 73.7 -2.5000002 74.4C -2.4000003 74.5 -2.2000003 74.700005 -2.1000001 74.9L-2.1000001 74.9L2.3999999 83.200005L14.2 75.100006C 15 74.50001 16.3 74.700005 16.9 75.600006C 17 75.700005 17.1 75.8 17.1 76.00001L17.1 76.00001L28.900002 105.90001L-12.1 81.8z" stroke="none" fill="#FFFFFF" fill-rule="nonzero" />
                <path d="M2.4 69.8C 3.4 67.9 4.2 66.4 4.2 66.4C 4.2 66.4 3.4 67.9 2.4 69.8C 1.4000001 71.700005 0.60000014 73.200005 0.60000014 73.200005C 0.60000014 73.200005 1.4 71.6 2.4 69.8z" stroke="none" fill="#FFFFFF" fill-rule="nonzero" />
			</g>
		</g>
		<g transform="matrix(-0.9986295 -0.05233596 -0.05233596 0.9986295 292.16357 371.2407)">
            <path d="M15.6 59.3L16 63.8C 14.1 68.7 12.7 74.4 11.8 80.6C 10.5 90.1 11 106.5 9.3 109.5C 7.6000004 112.4 8.6 114.6 9.8 115.2C 11.1 115.799995 12.8 114.5 16.8 111.6C 20.8 108.7 25.699999 107.1 25 105.4C 24.3 103.700005 17.3 106.700005 16.6 105.4C 15.900001 104.1 25.3 66.3 25 63.7C 24.8 62 24.5 58.5 24.3 53.1L24.3 53.1L15.6 59.3z" stroke="none" fill="#FFBBB0" fill-rule="nonzero" />
            <path d="M19.3 61.2L20 67.1C 18.4 75.1 17.3 81.6 16.6 86.7C 15.8 91.799995 14.700001 100.399994 13.1 112.7L13.1 112.7L14.900001 113.7L25 62.5L19.3 61.2z" stroke="none" fill="#F29E98" fill-rule="nonzero" />
            <path d="M8.6 107.9C 9.3 107.5 9.700001 107.5 10.1 107.9C 10.6 108.6 14.200001 110.1 16.6 109.5C 19 108.9 21.900002 106.7 21.900002 105.9C 21.900002 105.4 20.800001 104.5 18.500002 103.4C 21.500002 102.700005 23.600002 102.700005 24.800003 103.4C 26.500004 104.5 24.600002 108 22.900003 108.8C 21.300003 109.5 12.500004 115.100006 11.900003 115.100006C 11.500004 115.100006 10.900003 116.700005 10.000004 120.00001C 9.600004 120.200005 9.200004 120.200005 8.700004 120.00001C 7.9000034 115.80001 7.4000034 113.00001 7.4000034 111.50001C 7.6 109.9 8 108.7 8.6 107.9z" stroke="none" fill="#181E36" fill-rule="nonzero" />
            <path d="M22.9 58.7L23.199999 65.8C 21.099998 72.200005 19.599998 77.700005 18.699999 82.3C 17.3 89.200005 15.399999 108 14.699999 109.700005C 13.899999 111.4 12.999999 116.00001 14.999999 117.100006C 16.3 117.8 15.099999 116.50001 18.699999 116.600006C 20.8 116.700005 27.599998 119.40001 29.699999 119.40001C 35.3 119.40001 35.3 117.70001 34.5 116.90001C 34.2 116.600006 32.7 115.80001 30 114.40001C 26.3 113.20001 24.3 112.20001 23.8 111.600006C 22.4 109.50001 22.199999 106.700005 22.699999 103.600006C 23.2 100.4 33.8 68 34.3 65C 34.7 63 35 59.3 35.2 53.7L35.2 53.7L22.9 58.7z" stroke="none" fill="#FFBBB0" fill-rule="nonzero" />
            <path d="M40.8 -45.9L42.7 -45.9C 43 -45.9 43.2 -45.7 43.2 -45.4L43.2 -45.4L43.2 -45.2C 43.2 -44.9 43 -44.7 42.7 -44.7L42.7 -44.7L40.8 -44.7C 40.5 -44.7 40.3 -44.9 40.3 -45.2L40.3 -45.2L40.3 -45.4C 40.4 -45.7 40.6 -45.9 40.8 -45.9z" stroke="none" fill="#30334F" fill-rule="nonzero" />
            <path d="M41.6 -49.8C 42.8 -47.2 43.199997 -45.3 42.8 -44.1C 42.2 -42.3 42.7 -40.3 43.8 -39.6C 44.5 -39.1 44.2 -38.6 42.8 -37.899998C 42.7 -36.499996 42.399998 -35.1 41.8 -33.899998C 41 -32 41.2 -30.6 39 -30.6C 37.6 -30.6 36 -30.7 34.4 -31C 33.300003 -29.7 33 -28.5 33.300003 -27.7C 33.800003 -26.400002 36.9 -25.6 36.200005 -24.7C 35.600006 -23.900002 19.900005 -22.300001 19.100004 -23.6C 18.300003 -24.9 25.500004 -27.8 25.500004 -32.7C 25.500004 -37.600002 25.700005 -53.6 32.200005 -53.6C 36.4 -53.6 39.6 -52.3 41.6 -49.8z" stroke="none" fill="#FFBBB0" fill-rule="nonzero" />
            <path d="M35.6 -39.6C 35 -40.3 34.5 -40.399998 34 -40.3C 33.3 -40 33.1 -39.1 34 -38C 34.6 -37.3 35.2 -37.2 35.8 -37.8L35.8 -37.8L35.6 -39.6z" stroke="none" fill="url(#2199)" />
			<g transform="matrix(1 0 0 1 0.689693 105.65616)">
				<g>
                    <path d="M36.5 -95.3C 38.1 -84.4 38.6 -75.5 38.1 -68.5C 37.6 -61.5 36.699997 -53.2 35.199997 -43.8C 32.199997 -42.1 28.699997 -41.3 24.499996 -41.3C 20.299995 -41.3 16.699997 -42.399998 13.899996 -44.7C 12.199996 -56.800003 10.599996 -64.3 8.899996 -67.1C 6.399996 -71.299995 3.4999957 -78.799995 5.799996 -87.399994C 7.399996 -93.09999 9.899996 -97.399994 13.399996 -100.399994C 17.899996 -101.7 21.199997 -101.99999 23.399996 -101.399994C 25.599995 -100.799995 29.8 -98.7 36.5 -95.3z" stroke="none" fill="url(#2481)" />
				</g>
                <path d="M33.8 -94C 34.8 -84.3 35 -77.4 34.5 -73.4C 34 -69.4 33.5 -59 33 -42.300003" stroke="#1C478A" stroke-width="0.8554" fill="none" />
			</g>
            <path d="M14.2 5.2C 13.8 8.1 16.1 10.4 21 12.1C 28.4 14.700001 37.5 13.6 37.5 10.3C 37.5 8.2 29.7 6.5 14.2 5.2z" stroke="none" fill="#092965" fill-rule="nonzero" />
            <path d="M37.5 -22C 36.6 -24.8 35.3 -26.6 33.8 -27.6C 31.4 -29 24.199999 -32.8 23.199999 -28L23.199999 -28L37.5 -22z" stroke="none" fill="#D8D8D8" fill-rule="nonzero" />
            <path d="M40.8 -48.1C 42.1 -50.5 42.399998 -52.6 42.1 -54.399998C 41.5 -57.199997 38.699997 -60.699997 34 -59.3C 28 -60.3 20.8 -58 19 -49.7C 17.2 -41.4 18.8 -33.7 24.9 -32.4C 28.9 -31.600002 32 -32.600002 34.2 -35.800003C 32.4 -37.4 31.800001 -38.9 32.7 -40.300003C 33.5 -41.700005 34.8 -41.800003 36.5 -40.500004L36.5 -40.500004L40.8 -48.1z" stroke="none" fill="#30334F" fill-rule="nonzero" />
			<g transform="matrix(1 0 0 1 5.722275 53.351337)">
				<g>
                    <path d="M12.9 -80.9C 10.2 -80.700005 8.4 -77.8 7.2 -72.3C 5.3 -64.1 0.4 -55 4.7 -51.7C 7.6 -49.5 10.7 -52.7 14.099999 -61.2L14.099999 -61.2L12.9 -80.9z" stroke="none" fill="#F0F0F0" fill-rule="nonzero" />
				</g>
                <path d="M14 -82C 11.3 -81.8 9.5 -78.9 8.3 -73.4C 6.4 -65.1 1.5 -56 5.8 -52.7C 8.700001 -50.5 11.8 -53.7 15.2 -62.2L15.2 -62.2L14 -82z" stroke="none" fill="#D8D8D8" fill-rule="nonzero" />
			</g>
			<g transform="matrix(1 0 0 1 13.326763 51.695183)">
				<g>
                    <path d="M2.1 -73.9C 2.6 -74.700005 3.5 -78.8 6 -79.6C 9.1 -80.6 13.4 -80.4 16 -79.6C 20.8 -78 28.5 -73.5 29.2 -72.2C 29.900002 -70.899994 30.900002 -65.6 31.5 -62.699997C 32.1 -59.799995 33.4 -52.299995 27.6 -52.699997C 26.5 -50.799995 26 -48.899998 26 -47.199997C 26 -44.6 26.6 -43.1 24.3 -41.1C 22 -39.1 12.4 -39.6 8.099998 -41.1C 3.7999973 -42.6 1.4999986 -45.6 0.39999866 -47.199997C -0.40000135 -48.299995 0.29999867 -51.1 2.5999987 -55.6C 1.5 -66.4 1.4 -72.6 2.1 -73.9z" stroke="none" fill="url(#2758)" />
				</g>
                <path d="M28.3 -69.7C 26.199999 -61.199997 27 -54.699997 30.4 -50.299995C 33.8 -45.899994 33.1 -43.799995 28.3 -44.199997C 26.699999 -48.799995 25.699999 -53.1 25.5 -57.199997C 25.2 -61.3 26.1 -65.4 28.3 -69.7z" stroke="none" fill="#D8D8D8" fill-rule="nonzero" />
			</g>
			<g transform="matrix(1 0 0 1 90.34773 67.7937)">
				<g transform="matrix(1 0 0 1 0.426655 0.744323)">
					<g transform="matrix(0.52991927 0.84804803 -0.84804803 0.52991927 34.28023 -14.098312)">
                        <path d="M-76.8 3.7C -75.9 2.9 -74.100006 0.29999995 -72.200005 1.8000001C -69.700005 0.8000001 -67.00001 1.1920929E-07 -65.8 -0.19999993C -63.700005 -0.5999999 -61.600002 7.4505806E-08 -60.600002 -0.09999993C -59.600002 -0.19999993 -60.4 1.6000001 -61.800003 1.6000001C -63.200005 1.5000001 -65.5 1.6000001 -66.200005 1.9000001C -66.600006 2.1000001 -67.200005 2.4 -68.100006 2.9C -66.3 2.7 -65.100006 2.8000002 -64.600006 3C -63.800007 3.4 -63.300007 5.5 -62.600006 6.2C -61.900005 6.8999996 -63.300007 7.5 -63.800007 6.8999996C -63.70001 7.3999996 -63.70001 7.8999996 -63.70001 8.099999C -63.60001 8.599999 -63.40001 9.099999 -63.60001 9.2C -64.100006 9.5 -65.20001 9.2 -65.30001 8C -65.50001 8.4 -65.70001 8.8 -65.90001 9.3C -66 10.1 -67 9.5 -67 8.7C -67 8.2 -66.9 7.7999997 -66.8 7.3999996C -69.3 9.299999 -71.100006 10.4 -72.200005 10.7C -73.3 11 -74.700005 10.9 -76.4 10.3L-76.4 10.3L-88.3 18.5L-91.700005 13.2C -83.3 8.1 -78.3 4.9 -76.8 3.7z" stroke="none" fill="#FFBBB0" fill-rule="nonzero" />
					</g>
                    <path d="M-1.9 -74.6C -2.1 -76.7 -2.7 -77.7 -3.6 -77.9C -4.5 -78.100006 -5.3 -78 -5.8 -78C -4.2000003 -78.4 -3.2000003 -78.4 -2.8000002 -78C -2.5000002 -77.7 -1.2000002 -75.3 -1.1000001 -74.4C -1.5 -74.3 -1.8 -74.4 -1.9 -74.6z" stroke="none" fill="#F29E98" fill-rule="nonzero" />
                    <path d="M-3.4 -73.5C -2.9 -75 -2.7 -76 -3.1000001 -76.4C -3.5 -76.8 -4.4 -77 -5.7 -77C -4.7 -77.4 -3.7999997 -77.4 -3.1999998 -76.8C -2.6999998 -76.4 -2.6999998 -75.100006 -2.6999998 -73.4C -2.6999998 -73.1 -2.6 -72.700005 -2.4999998 -72.1C -2.7999997 -72.2 -2.9999998 -72.299995 -3.1999998 -72.6C -3.3 -73 -3.4 -73.2 -3.4 -73.5z" stroke="none" fill="#F29E98" fill-rule="nonzero" />
                    <path d="M-10.4 -79.7L-12.3 -79.1L-10.7 -80.8L-10.4 -79.7" stroke="none" fill="#F29E98" fill-rule="nonzero" />
				</g>
			</g>
            <path d="M68.6 -5.2C 68.7 -5.2 70.299995 -7.5 72.7 -6.2999997C 75.1 -5.2 76.299995 -0.7999997 73.5 -0.099999905C 70.9 0.5 68.6 -5.2 68.6 -5.2z" stroke="none" fill="#D8D8D8" fill-rule="nonzero" />
			<g transform="matrix(1 0 0 1 54.65982 63.946606)">
				<g>
                    <path d="M-13.2 -85.2C -10.2 -83.299995 -7.8999996 -79.399994 -6.2 -73.399994C -4.5 -67.399994 -3.1 -63.699993 -1.7999997 -62.199993C 6.5000005 -65.299995 11.4 -67.59999 12.9 -69.299995C 15.2 -71.7 17.7 -68.99999 18.599998 -67.1C 19.399998 -65.2 20.699999 -63 15.599998 -59.6C 10.599998 -56.199997 -3.7000008 -49.8 -7.6000023 -53.399998C -11.500002 -57.1 -16.200003 -72 -16.200003 -76C -16.2 -78.6 -15.2 -81.7 -13.2 -85.2z" stroke="none" fill="#FFFEFE" fill-rule="nonzero" />
				</g>
                <path d="M-16 -73.6C -15.3 -72.5 -14.2 -68.9 -12.5 -62.899998C -10.5 -58.199997 -8.2 -51.699997 -3.5 -52.5C 1.0999999 -53.3 6.8999996 -54.8 12.700001 -58.2C 18.500002 -61.600002 19 -64.1 20 -64.3C 20.8 -62.4 16.1 -51.300003 11.1 -48.000004C 6.1000004 -44.700005 -8.1 -38.2 -12 -41.8C -16 -45.5 -20.7 -60.6 -20.7 -64.5C -20.8 -67.2 -19.1 -70.2 -16 -73.6z" stroke="none" fill="#D8D8D8" fill-rule="nonzero" />
			</g>
            <path d="M21 -41C 21 -45.3 21 -48.8 21 -48.8C 21 -48.8 21 -45.3 21 -41C 21 -36.7 21 -33.2 21 -33.2C 21 -33.2 21 -36.8 21 -41z" stroke="none" fill="#181E36" fill-rule="nonzero" />
            <path d="M14 110.8C 14.4 110.3 14.7 110.3 16 111.3C 17.4 112.5 22.9 114.600006 25.2 115.200005C 26.7 115.600006 30.5 115.8 30.400002 115.200005C 30.300001 114.600006 29.600002 114.50001 29.400002 114.4C 29.100002 114 35.100002 116.9 36.5 118C 37.9 119.1 37.8 121 31 122.5C 30.3 122.6 26.5 122.2 25.1 121.7C 22.1 120.6 20.900002 118.5 17.7 118.1L17.7 118.1L16.300001 124.1C 15.600001 124.5 15.000001 124.4 14.500001 123.9C 13.700001 117.9 13.300001 114.5 13.300001 113.5C 13.3 111.9 13.8 111.1 14 110.8z" stroke="none" fill="#181E36" fill-rule="nonzero" />
		</g>
	</g>
	<g transform="matrix(1 0 0 1 485.35883 626.6382)">
        <path d="M24.9 -126.9C 26.6 -117.5 28 -111.200005 29.099998 -108.100006C 29.999998 -105.600006 32.199997 -102.90001 38.5 -102.90001C 44.800003 -102.90001 47.9 -105.30001 48.6 -108.100006C 49.5 -111.600006 50.6 -118.700005 51.8 -129.3C 48.2 -132.7 43.4 -134.5 37.3 -134.5C 32.2 -134.5 28.4 -133.2 25.8 -130.5C 25.1 -129.4 24.7 -128.1 24.9 -126.9z" stroke="none" fill="#DCE9FF" fill-rule="nonzero" />
		<g transform="matrix(1 0 0 1 26.360432 113.88909)">
			<g>
                <path transform="matrix(0.4384 0.8988 -0.8988 0.4384 -209.9223 -146.5311)"  d="M-1 -241.2C -1 -244.73462 4.9546127 -247.59999 12.3 -247.59999C 19.645388 -247.59999 25.6 -244.73462 25.6 -241.2C 25.6 -237.66537 19.645388 -234.8 12.3 -234.8C 4.9546127 -234.8 -1 -237.66537 -1 -241.2" stroke="none" fill="#092965" fill-rule="nonzero" />
			</g>
            <path transform="matrix(0.4384 0.8988 -0.8988 0.4384 -204.8338 -143.9315)"  d="M-0.5 -235.9C -0.5 -240.31827 5.4546127 -243.9 12.8 -243.9C 20.145388 -243.9 26.1 -240.31827 26.1 -235.9C 26.1 -231.48172 20.145388 -227.9 12.8 -227.9C 5.4546127 -227.9 -0.5 -231.48172 -0.5 -235.9" stroke="none" fill="#238B8E" fill-rule="nonzero" />
		</g>
		<g transform="matrix(-1 -0 0 1 100.04335 0.280564)">
			<g transform="matrix(1 0 0 1 23.141214 46.908607)">
                <path d="M52.4 -212.7C 52.4 -211.8 47.7 -206.5 43.100002 -193.9C 40.800003 -187.7 39.7 -180.79999 39.7 -173.09999" stroke="#000000" stroke-width="2.0471" fill="none" stroke-opacity="0" />
                <path d="M46.6 -202.3C 51.6 -204.5 56.1 -208.90001 59.899998 -215.6C 65.7 -225.6 56.199997 -227.90001 50.299995 -219.5C 46.3 -214 45.1 -208.2 46.6 -202.3z" stroke="none" fill="url(#3034)" />
                <path d="M43.1 -194.2C 44.8 -199.4 44.5 -205.7 42.1 -213C 38.6 -224 30.599998 -218.5 32.699997 -208.5C 34.2 -201.9 37.7 -197.1 43.1 -194.2z" stroke="none" fill="url(#3305)" />
                <path d="M39.9 -179.9C 42 -186.5 41.600002 -194.4 38.4 -203.7C 33.800003 -217.59999 23.7 -210.7 26.600002 -198.09999C 28.6 -189.6 33.1 -183.6 39.9 -179.9z" stroke="none" fill="url(#3587)" />
                <path d="M42.1 -190.2C 47.5 -189.59999 53.6 -191.2 60.3 -195C 70.3 -200.8 63.2 -207.5 53.899998 -203.2C 47.8 -200.4 43.8 -196.1 42.1 -190.2z" stroke="none" fill="url(#3869)" />
                <path d="M39.2 -176.4C 46.100002 -176.29999 53.5 -179.09999 61.5 -184.79999C 73.5 -193.29999 64 -200.9 52.7 -194.4C 45.1 -190.1 40.6 -184.1 39.2 -176.4z" stroke="none" fill="url(#4152)" />
			</g>
			<g transform="matrix(-1 -0 0 1 86.17596 -0)">
                <path d="M40.8 -194.2C 40.8 -192.59999 36.2 -183.59999 31.599998 -162C 29.399998 -151.5 28.3 -139.6 28.3 -126.6" stroke="#000000" stroke-width="2.0471" fill="none" stroke-opacity="0" />
                <path d="M38 -187C 43 -189.2 47.5 -193.6 51.3 -200.3C 57.1 -210.3 47.6 -212.6 41.6 -204.2C 37.7 -198.7 36.5 -193 38 -187z" stroke="none" fill="url(#4432)" />
                <path d="M35.3 -178.1C 37 -183.3 36.7 -189.6 34.3 -196.90001C 30.699999 -207.90001 22.8 -202.3 24.9 -192.3C 26.4 -185.7 29.9 -181 35.3 -178.1z" stroke="none" fill="url(#4711)" />
                <path d="M32.1 -163.8C 34.199997 -170.40001 33.8 -178.3 30.599998 -187.6C 25.999998 -201.5 15.899999 -194.6 18.8 -182C 20.8 -173.5 25.3 -167.4 32.1 -163.8z" stroke="none" fill="url(#4997)" />
                <path d="M29.8 -152C 30.4 -158.9 28.099998 -166.5 23 -174.9C 15.4 -187.4 7.1000004 -178.4 12.7 -166.7C 16.6 -158.9 22.3 -154 29.8 -152z" stroke="none" fill="url(#5286)" />
                <path d="M33.8 -172.8C 39.2 -172.2 45.3 -173.8 52 -177.6C 62.1 -183.40001 55 -190.1 45.6 -185.8C 39.4 -183.1 35.5 -178.7 33.8 -172.8z" stroke="none" fill="url(#5575)" />
                <path d="M30.8 -159.1C 37.7 -159 45.1 -161.8 53.1 -167.5C 65 -176 55.5 -183.6 44.199997 -177.1C 36.8 -172.7 32.3 -166.7 30.8 -159.1z" stroke="none" fill="url(#5864)" />
                <path d="M28.8 -145.7C 35.7 -145.59999 43.1 -148.4 51.1 -154.09999C 63.1 -162.59999 53.6 -170.2 42.3 -163.7C 34.8 -159.4 30.3 -153.4 28.8 -145.7z" stroke="none" fill="url(#6155)" />
                <path d="M28.5 -137.7C 29.1 -144.59999 26.8 -152.2 21.7 -160.59999C 14.1 -173.09999 5.800001 -164.09999 11.500001 -152.4C 15.3 -144.7 20.9 -139.8 28.5 -137.7z" stroke="none" fill="url(#6445)" />
                <path d="M27.5 -131.5C 34.4 -131.4 41.8 -134.2 49.8 -139.9C 61.8 -148.4 52.3 -156 41 -149.5C 33.5 -145.1 29 -139.2 27.5 -131.5z" stroke="none" fill="url(#6733)" />
			</g>
		</g>
	</g>
	<g transform="matrix(1 0 0 1 0 471.2161)">
		<g>
            <path transform="matrix(0.4384 0.8988 -0.8988 0.4384 117.5245 -108.0164)"  d="M113.799995 40C 113.799995 30.114101 127.85825 22.1 145.2 22.1C 162.54173 22.1 176.59999 30.114101 176.59999 40C 176.59999 49.8859 162.54173 57.9 145.2 57.9C 127.85825 57.9 113.799995 49.8859 113.799995 40" stroke="none" fill="url(#7026)" />
		</g>
		<g transform="matrix(1 0 0 1 38.6306 169.2814)">
			<g>
                <path d="M98.5 -200.3L112.9 -200.3L112.9 -134C 112.9 -130 109.700005 -126.8 105.700005 -126.8C 101.700005 -126.8 98.50001 -130 98.50001 -134L98.50001 -134L98.50001 -200.3L98.5 -200.3z" stroke="none" fill="#AC6A5A" fill-rule="nonzero" />
			</g>
            <path d="M102.7 -179.4C 101.899994 -173.4 106.2 -168.79999 115.399994 -165.79999C 129.29999 -161.29999 106.2 -169.19998 98.49999 -165.79999C 90.79999 -162.4 99.299995 -163.59999 103.799995 -163.59999C 108.299995 -163.59999 107.99999 -157.29999 103.799995 -157.29999C 99.6 -157.29999 81.7 -139.59999 92.799995 -141.99998C 103.799995 -144.39998 113.59999 -167.09999 119.299995 -157.29999C 124.99999 -147.49998 96.09999 -136.09999 96.09999 -130.4C 96.09999 -124.7 100.09999 -134.7 114.49999 -138.79999C 128.9 -142.9 125.399994 -114.499985 108.299995 -117.39999C 91.2 -120.29999 89.7 -129.19998 94.1 -132.69998C 98.5 -136.29999 107.9 -142.49998 106.799995 -145.59998C 106.1 -147.69998 101.899994 -145.39998 94.2 -138.69998" stroke="#FFFFFF" stroke-width="0.99" fill="none" />
            <path d="M101.1 -190.8L115.5 -190.8L115.5 -124.5C 115.5 -120.5 112.3 -117.3 108.3 -117.3C 104.3 -117.3 101.100006 -120.5 101.100006 -124.5C 101.1 -124.6 101.1 -190.8 101.1 -190.8z" stroke="none" fill="#AC6A5A" fill-rule="nonzero" fill-opacity="0.25490198" />
		</g>
		<g transform="matrix(1 0 0 1 6.933698 0)">
			<g>
                <path d="M134.7 -133.1C 150.09999 -133.1 140.09999 -109.600006 152.09999 -83.600006C 163.99998 -57.700005 178.79999 -9.400009 144.9 -6.600006C 110.899994 -3.900006 110.799995 -38.700005 111.399994 -77.8C 112 -117 119.3 -133.1 134.7 -133.1z" stroke="none" fill="url(#7301)" />
			</g>
			<g>
                <path d="M134.7 -133.1C 150.09999 -133.1 140.09999 -109.600006 152.09999 -83.600006C 163.99998 -57.700005 178.79999 -9.400009 144.9 -6.600006C 110.899994 -3.900006 110.799995 -38.700005 111.399994 -77.8C 112 -117 119.3 -133.1 134.7 -133.1z" stroke="none" fill="#FFFFFF" fill-rule="nonzero" />
			</g>
            <path d="M145.7 -125.8C 161.09999 -125.8 151.09999 -102.3 163.09999 -76.3C 174.99998 -50.4 189.79999 -2.100006 155.9 0.69999695C 122 3.5 121.799995 -31.400002 122.399994 -70.5C 123.1 -109.7 130.3 -125.8 145.7 -125.8z" stroke="none" fill="url(#7579)" />
		</g>
	</g>
</g>
</svg>